M48
;FILE_FORMAT=2:4
INCH,LZ
FMAT,2
ICI,OFF
;TYPE=PLATED
T1C.035
%
M72
G90
G93X0Y0
T1C.035F197S55
X013Y012
X018Y012
X023Y012
X024Y013
X025Y012
X026Y015
X027Y012
X029Y015
X032Y012
X034Y012
X032Y019
X032Y017
X024Y017
X024Y018
X02Y018
X02Y017
X018Y017
X016Y018
X015Y018
X013Y018
X013Y023
X024Y023
X026Y02
X029Y02
X029Y023
X033Y023
M30
